<svg xmlns="http://www.w3.org/2000/svg" viewBox="0 0 700 800" aria-labelledby="title desc" role="img">
  <title id="title">Nun smiling with caption</title>
  <desc id="desc">Illustrated nun smiling with text that says I can't find the words to tell you how magical it is.</desc>
  <defs>
    <linearGradient id="bg" x1="0%" x2="100%" y1="0%" y2="100%">
      <stop offset="0%" stop-color="#f7d6a8" />
      <stop offset="100%" stop-color="#cba070" />
    </linearGradient>
    <linearGradient id="veil" x1="0%" x2="0%" y1="0%" y2="100%">
      <stop offset="0%" stop-color="#2f2f2f" />
      <stop offset="100%" stop-color="#0b0b0b" />
    </linearGradient>
  </defs>
  <rect width="700" height="800" fill="url(#bg)" rx="24" />
  <rect x="40" y="40" width="120" height="200" fill="#b46f45" opacity="0.3" />
  <rect x="540" y="120" width="100" height="260" fill="#b46f45" opacity="0.3" />
  <ellipse cx="350" cy="300" rx="210" ry="240" fill="#f3e8d7" stroke="#c8bba5" stroke-width="10" />
  <path d="M140 240 C200 100 500 100 560 240 L560 540 L140 540 Z" fill="url(#veil)" />
  <path d="M210 250 Q350 170 490 250 L490 390 L210 390 Z" fill="#f2f2f2" />
  <circle cx="310" cy="280" r="16" fill="#2a1b18" />
  <circle cx="390" cy="280" r="16" fill="#2a1b18" />
  <circle cx="310" cy="278" r="7" fill="#f9f6f2" opacity="0.8" />
  <circle cx="390" cy="278" r="7" fill="#f9f6f2" opacity="0.8" />
  <path d="M330 330 Q350 348 370 330" stroke="#ad7d50" stroke-width="12" fill="none" stroke-linecap="round" />
  <path d="M340 360 Q350 375 360 360" stroke="#ad7d50" stroke-width="6" fill="none" stroke-linecap="round" />
  <path d="M255 430 Q350 470 445 430" stroke="#ad7d50" stroke-width="18" fill="#e6d8c6" />
  <rect x="255" y="425" width="190" height="20" fill="#e6d8c6" />
  <rect x="210" y="385" width="280" height="160" rx="32" fill="#f2f2f2" stroke="#dcdcdc" stroke-width="6" />
  <path d="M210 450 Q350 520 490 450" fill="#ededed" />
  <rect x="235" y="510" width="230" height="120" rx="18" fill="#f8f8f8" stroke="#d0d0d0" stroke-width="4" />
  <path d="M235 520 Q350 580 465 520" fill="#f0f0f0" />
  <text x="350" y="720" text-anchor="middle" font-family="Helvetica, Arial, sans-serif" font-size="36" fill="#f6f6f6" stroke="#111" stroke-width="2" paint-order="stroke">I can't find the words</text>
  <text x="350" y="760" text-anchor="middle" font-family="Helvetica, Arial, sans-serif" font-size="36" fill="#f6f6f6" stroke="#111" stroke-width="2" paint-order="stroke">to tell you how magical it is.</text>
</svg>
